<mxfile host="65bd71144e">
    <diagram id="jA36XbMxR3H43F8sUAgM" name="Page-1">
        <mxGraphModel dx="2337" dy="2789" grid="1" gridSize="10" guides="1" tooltips="1" connect="1" arrows="1" fold="1" page="1" pageScale="1" pageWidth="850" pageHeight="1100" math="0" shadow="0">
            <root>
                <mxCell id="0"/>
                <mxCell id="1" parent="0"/>
                <mxCell id="167" style="edgeStyle=none;jumpStyle=arc;jumpSize=9;html=1;exitX=1;exitY=0.5;exitDx=0;exitDy=0;fontSize=15;endArrow=open;endFill=0;endSize=20;" edge="1" parent="1" source="3">
                    <mxGeometry relative="1" as="geometry">
                        <mxPoint x="200" y="99.66666666666697" as="targetPoint"/>
                    </mxGeometry>
                </mxCell>
                <mxCell id="3" value="a := 7&lt;br style=&quot;font-size: 14px;&quot;&gt;b = 3 + (2 * 6)&lt;br style=&quot;font-size: 14px;&quot;&gt;c = (b * 6) + (9 * (b * 6))&amp;nbsp;&lt;br style=&quot;font-size: 14px;&quot;&gt;d = a * c" style="text;html=1;strokeColor=none;fillColor=none;align=left;verticalAlign=middle;whiteSpace=wrap;rounded=0;fontSize=14;" vertex="1" parent="1">
                    <mxGeometry x="-10" y="80" width="160" height="40" as="geometry"/>
                </mxCell>
                <mxCell id="166" style="edgeStyle=none;jumpStyle=arc;jumpSize=9;html=1;exitX=1;exitY=0.5;exitDx=0;exitDy=0;fontSize=15;endArrow=open;endFill=0;endSize=20;" edge="1" parent="1" source="4">
                    <mxGeometry relative="1" as="geometry">
                        <mxPoint x="360" y="99.66666666666697" as="targetPoint"/>
                    </mxGeometry>
                </mxCell>
                <mxCell id="4" value="a&amp;nbsp; &amp;nbsp; := 7&lt;br style=&quot;font-size: 15px;&quot;&gt;t0&amp;nbsp; &amp;nbsp;:= 6&lt;br style=&quot;font-size: 15px;&quot;&gt;t1&amp;nbsp; &amp;nbsp;:= 2&lt;br style=&quot;font-size: 15px;&quot;&gt;t2&amp;nbsp; &amp;nbsp;:= t0 * t1&lt;br style=&quot;font-size: 15px;&quot;&gt;t3&amp;nbsp; &amp;nbsp;:= 3&lt;br style=&quot;font-size: 15px;&quot;&gt;b&amp;nbsp; &amp;nbsp; := t3 + t2&lt;br style=&quot;font-size: 15px;&quot;&gt;t4&amp;nbsp; &amp;nbsp;:= 6&lt;br style=&quot;font-size: 15px;&quot;&gt;t5&amp;nbsp; &amp;nbsp;:= b * t4&lt;br style=&quot;font-size: 15px;&quot;&gt;t6&amp;nbsp; &amp;nbsp;:= 9&lt;br style=&quot;font-size: 15px;&quot;&gt;t7&amp;nbsp; &amp;nbsp;:= t6 * t5&lt;br style=&quot;font-size: 15px;&quot;&gt;t8&amp;nbsp; &amp;nbsp;:= 6&lt;br style=&quot;font-size: 15px;&quot;&gt;t9&amp;nbsp; := b * t8&lt;br style=&quot;font-size: 15px;&quot;&gt;c&amp;nbsp; &amp;nbsp; := t9 + t7&lt;br style=&quot;font-size: 15px;&quot;&gt;d&amp;nbsp; &amp;nbsp; := a * c" style="text;html=1;strokeColor=none;fillColor=none;align=left;verticalAlign=middle;whiteSpace=wrap;rounded=0;fontSize=15;" vertex="1" parent="1">
                    <mxGeometry x="210" y="-40" width="100" height="280" as="geometry"/>
                </mxCell>
                <mxCell id="20" value="" style="rounded=0;whiteSpace=wrap;html=1;verticalAlign=top;fontSize=9;align=left;fillColor=#60a917;fontColor=#ffffff;strokeColor=none;gradientColor=#0050EF;" vertex="1" parent="1">
                    <mxGeometry x="460" y="-12.5" width="130" height="20" as="geometry"/>
                </mxCell>
                <mxCell id="31" value="..." style="text;html=1;strokeColor=none;fillColor=none;align=center;verticalAlign=bottom;whiteSpace=wrap;rounded=0;fontSize=28;fontStyle=1" vertex="1" parent="1">
                    <mxGeometry x="545" y="217.5" width="60" height="30" as="geometry"/>
                </mxCell>
                <mxCell id="41" style="edgeStyle=none;html=1;fontSize=20;endArrow=none;endFill=0;jumpStyle=arc;jumpSize=9;" edge="1" parent="1" source="32" target="33">
                    <mxGeometry relative="1" as="geometry"/>
                </mxCell>
                <mxCell id="42" style="edgeStyle=none;html=1;fontSize=20;endArrow=none;endFill=0;jumpStyle=arc;jumpSize=9;" edge="1" parent="1" source="32" target="34">
                    <mxGeometry relative="1" as="geometry"/>
                </mxCell>
                <mxCell id="43" style="edgeStyle=none;html=1;fontSize=20;endArrow=none;endFill=0;jumpStyle=arc;jumpSize=9;" edge="1" parent="1" source="32" target="36">
                    <mxGeometry relative="1" as="geometry"/>
                </mxCell>
                <mxCell id="47" style="edgeStyle=none;html=1;fontSize=20;endArrow=none;endFill=0;jumpStyle=arc;jumpSize=9;" edge="1" parent="1" source="32" target="37">
                    <mxGeometry relative="1" as="geometry"/>
                </mxCell>
                <mxCell id="48" style="edgeStyle=none;html=1;fontSize=20;endArrow=none;endFill=0;jumpStyle=arc;jumpSize=9;" edge="1" parent="1" source="32" target="44">
                    <mxGeometry relative="1" as="geometry"/>
                </mxCell>
                <mxCell id="49" style="edgeStyle=none;html=1;fontSize=20;endArrow=none;endFill=0;jumpStyle=arc;jumpSize=9;" edge="1" parent="1" source="32" target="40">
                    <mxGeometry relative="1" as="geometry"/>
                </mxCell>
                <mxCell id="32" value="a" style="ellipse;whiteSpace=wrap;html=1;aspect=fixed;fontSize=20;fillColor=#6a00ff;fontColor=#ffffff;strokeColor=#3700CC;" vertex="1" parent="1">
                    <mxGeometry x="140" y="415" width="30" height="30" as="geometry"/>
                </mxCell>
                <mxCell id="133" style="edgeStyle=none;html=1;fontSize=15;endArrow=none;endFill=0;jumpStyle=arc;jumpSize=9;" edge="1" parent="1" source="33" target="34">
                    <mxGeometry relative="1" as="geometry"/>
                </mxCell>
                <mxCell id="134" style="edgeStyle=none;html=1;fontSize=15;endArrow=none;endFill=0;jumpStyle=arc;jumpSize=9;" edge="1" parent="1" source="33" target="35">
                    <mxGeometry relative="1" as="geometry"/>
                </mxCell>
                <mxCell id="135" style="edgeStyle=none;html=1;fontSize=15;endArrow=none;endFill=0;jumpStyle=arc;jumpSize=9;" edge="1" parent="1" source="33" target="36">
                    <mxGeometry relative="1" as="geometry"/>
                </mxCell>
                <mxCell id="137" style="edgeStyle=none;jumpStyle=arc;jumpSize=9;html=1;fontSize=15;endArrow=none;endFill=0;" edge="1" parent="1" source="33" target="44">
                    <mxGeometry relative="1" as="geometry"/>
                </mxCell>
                <mxCell id="33" value="t0" style="ellipse;whiteSpace=wrap;html=1;aspect=fixed;fontSize=20;fillColor=#fa6800;fontColor=#000000;strokeColor=#C73500;" vertex="1" parent="1">
                    <mxGeometry x="310" y="360" width="30" height="30" as="geometry"/>
                </mxCell>
                <mxCell id="34" value="t1" style="ellipse;whiteSpace=wrap;html=1;aspect=fixed;fontSize=20;fillColor=#d80073;fontColor=#ffffff;strokeColor=#A50040;" vertex="1" parent="1">
                    <mxGeometry x="240" y="290" width="30" height="30" as="geometry"/>
                </mxCell>
                <mxCell id="50" style="edgeStyle=none;html=1;fontSize=20;endArrow=none;endFill=0;jumpStyle=arc;jumpSize=9;" edge="1" parent="1" source="35" target="32">
                    <mxGeometry relative="1" as="geometry"/>
                </mxCell>
                <mxCell id="35" value="t2" style="ellipse;whiteSpace=wrap;html=1;aspect=fixed;fontSize=20;fillColor=#d80073;fontColor=#ffffff;strokeColor=#A50040;" vertex="1" parent="1">
                    <mxGeometry x="370" y="390" width="30" height="30" as="geometry"/>
                </mxCell>
                <mxCell id="136" style="edgeStyle=none;jumpStyle=arc;jumpSize=9;html=1;fontSize=15;endArrow=none;endFill=0;" edge="1" parent="1" source="36" target="35">
                    <mxGeometry relative="1" as="geometry"/>
                </mxCell>
                <mxCell id="36" value="t3" style="ellipse;whiteSpace=wrap;html=1;aspect=fixed;fontSize=20;fillColor=#008a00;fontColor=#ffffff;strokeColor=#005700;" vertex="1" parent="1">
                    <mxGeometry x="340" y="290" width="30" height="30" as="geometry"/>
                </mxCell>
                <mxCell id="37" value="t4" style="ellipse;whiteSpace=wrap;html=1;aspect=fixed;fontSize=20;fillColor=#d80073;fontColor=#ffffff;strokeColor=#A50040;" vertex="1" parent="1">
                    <mxGeometry x="130" y="477.5" width="30" height="30" as="geometry"/>
                </mxCell>
                <mxCell id="52" style="edgeStyle=none;html=1;fontSize=20;endArrow=none;endFill=0;jumpStyle=arc;jumpSize=9;" edge="1" parent="1" source="38" target="32">
                    <mxGeometry relative="1" as="geometry"/>
                </mxCell>
                <mxCell id="138" style="edgeStyle=none;jumpStyle=arc;jumpSize=9;html=1;fontSize=15;endArrow=none;endFill=0;" edge="1" parent="1" source="38" target="40">
                    <mxGeometry relative="1" as="geometry"/>
                </mxCell>
                <mxCell id="139" style="edgeStyle=none;jumpStyle=arc;jumpSize=9;html=1;fontSize=15;endArrow=none;endFill=0;" edge="1" parent="1" source="38" target="39">
                    <mxGeometry relative="1" as="geometry"/>
                </mxCell>
                <mxCell id="38" value="t5" style="ellipse;whiteSpace=wrap;html=1;aspect=fixed;fontSize=20;fillColor=#fa6800;fontColor=#000000;strokeColor=#C73500;" vertex="1" parent="1">
                    <mxGeometry x="210" y="492.5" width="30" height="30" as="geometry"/>
                </mxCell>
                <mxCell id="51" style="edgeStyle=none;html=1;fontSize=20;endArrow=none;endFill=0;jumpStyle=arc;jumpSize=9;" edge="1" parent="1" source="39" target="32">
                    <mxGeometry relative="1" as="geometry"/>
                </mxCell>
                <mxCell id="39" value="t7" style="ellipse;whiteSpace=wrap;html=1;aspect=fixed;fontSize=20;fillColor=#d80073;fontColor=#ffffff;strokeColor=#A50040;" vertex="1" parent="1">
                    <mxGeometry x="180" y="537.5" width="30" height="30" as="geometry"/>
                </mxCell>
                <mxCell id="40" value="t6" style="ellipse;whiteSpace=wrap;html=1;aspect=fixed;fontSize=20;fillColor=#d80073;fontColor=#ffffff;strokeColor=#A50040;" vertex="1" parent="1">
                    <mxGeometry x="280" y="477.5" width="30" height="30" as="geometry"/>
                </mxCell>
                <mxCell id="44" value="b" style="ellipse;whiteSpace=wrap;html=1;aspect=fixed;fontSize=20;fillColor=#d80073;fontColor=#ffffff;strokeColor=#A50040;" vertex="1" parent="1">
                    <mxGeometry x="310" y="445" width="30" height="30" as="geometry"/>
                </mxCell>
                <mxCell id="55" style="edgeStyle=none;html=1;fontSize=20;endArrow=none;endFill=0;jumpStyle=arc;jumpSize=9;" edge="1" parent="1" source="45" target="32">
                    <mxGeometry relative="1" as="geometry"/>
                </mxCell>
                <mxCell id="45" value="c" style="ellipse;whiteSpace=wrap;html=1;aspect=fixed;fontSize=20;fillColor=#d80073;fontColor=#ffffff;strokeColor=#A50040;" vertex="1" parent="1">
                    <mxGeometry x="90" y="457.5" width="30" height="30" as="geometry"/>
                </mxCell>
                <mxCell id="46" value="d" style="ellipse;whiteSpace=wrap;html=1;aspect=fixed;fontSize=20;fillColor=#6a00ff;fontColor=#ffffff;strokeColor=#3700CC;" vertex="1" parent="1">
                    <mxGeometry x="130" y="357.5" width="30" height="30" as="geometry"/>
                </mxCell>
                <mxCell id="62" value="&lt;span style=&quot;font-size: 12px;&quot;&gt;a&amp;nbsp; &amp;nbsp; := 7&lt;/span&gt;" style="text;html=1;strokeColor=none;fillColor=none;align=left;verticalAlign=middle;whiteSpace=wrap;rounded=0;fontSize=15;" vertex="1" parent="1">
                    <mxGeometry x="380" y="-12.5" width="70" height="20" as="geometry"/>
                </mxCell>
                <mxCell id="63" value="&lt;span style=&quot;font-size: 12px&quot;&gt;t0&amp;nbsp; &amp;nbsp;:= 6&lt;/span&gt;" style="text;html=1;strokeColor=none;fillColor=none;align=left;verticalAlign=middle;whiteSpace=wrap;rounded=0;fontSize=15;" vertex="1" parent="1">
                    <mxGeometry x="380" y="7.5" width="70" height="20" as="geometry"/>
                </mxCell>
                <mxCell id="64" value="&lt;span style=&quot;font-size: 12px&quot;&gt;t1&amp;nbsp; &amp;nbsp;:= 2&lt;/span&gt;" style="text;html=1;strokeColor=none;fillColor=none;align=left;verticalAlign=middle;whiteSpace=wrap;rounded=0;fontSize=15;" vertex="1" parent="1">
                    <mxGeometry x="380" y="27.5" width="70" height="20" as="geometry"/>
                </mxCell>
                <mxCell id="65" value="&lt;span style=&quot;font-size: 12px&quot;&gt;t2&amp;nbsp; &amp;nbsp;:= t0 * t1&lt;/span&gt;" style="text;html=1;strokeColor=none;fillColor=none;align=left;verticalAlign=middle;whiteSpace=wrap;rounded=0;fontSize=15;" vertex="1" parent="1">
                    <mxGeometry x="380" y="47.5" width="70" height="20" as="geometry"/>
                </mxCell>
                <mxCell id="66" value="&lt;span style=&quot;font-size: 12px&quot;&gt;t3&amp;nbsp; &amp;nbsp;:= 3&lt;/span&gt;" style="text;html=1;strokeColor=none;fillColor=none;align=left;verticalAlign=middle;whiteSpace=wrap;rounded=0;fontSize=15;" vertex="1" parent="1">
                    <mxGeometry x="380" y="67.5" width="70" height="20" as="geometry"/>
                </mxCell>
                <mxCell id="67" value="&lt;span style=&quot;font-size: 12px&quot;&gt;b&amp;nbsp; &amp;nbsp; := t3 + t2&lt;/span&gt;" style="text;html=1;strokeColor=none;fillColor=none;align=left;verticalAlign=middle;whiteSpace=wrap;rounded=0;fontSize=15;" vertex="1" parent="1">
                    <mxGeometry x="380" y="87.5" width="70" height="20" as="geometry"/>
                </mxCell>
                <mxCell id="68" value="&lt;span style=&quot;font-size: 12px&quot;&gt;t5&amp;nbsp; &amp;nbsp;:= b * t0&lt;/span&gt;" style="text;html=1;strokeColor=none;fillColor=none;align=left;verticalAlign=middle;whiteSpace=wrap;rounded=0;fontSize=15;" vertex="1" parent="1">
                    <mxGeometry x="380" y="107.5" width="70" height="20" as="geometry"/>
                </mxCell>
                <mxCell id="69" value="&lt;span style=&quot;font-size: 12px&quot;&gt;t6&amp;nbsp; &amp;nbsp;:= 9&lt;/span&gt;" style="text;html=1;strokeColor=none;fillColor=none;align=left;verticalAlign=middle;whiteSpace=wrap;rounded=0;fontSize=15;" vertex="1" parent="1">
                    <mxGeometry x="380" y="127.5" width="70" height="20" as="geometry"/>
                </mxCell>
                <mxCell id="70" value="&lt;span style=&quot;font-size: 12px&quot;&gt;t7&amp;nbsp; &amp;nbsp;:= t6 * t5&lt;/span&gt;" style="text;html=1;strokeColor=none;fillColor=none;align=left;verticalAlign=middle;whiteSpace=wrap;rounded=0;fontSize=15;" vertex="1" parent="1">
                    <mxGeometry x="380" y="147.5" width="70" height="20" as="geometry"/>
                </mxCell>
                <mxCell id="71" value="&lt;span style=&quot;font-size: 12px&quot;&gt;c&amp;nbsp; &amp;nbsp; := t5 + t7&lt;/span&gt;" style="text;html=1;strokeColor=none;fillColor=none;align=left;verticalAlign=middle;whiteSpace=wrap;rounded=0;fontSize=15;" vertex="1" parent="1">
                    <mxGeometry x="380" y="167.5" width="70" height="20" as="geometry"/>
                </mxCell>
                <mxCell id="72" value="&lt;span style=&quot;font-size: 12px&quot;&gt;d&amp;nbsp; &amp;nbsp; := a * c&lt;/span&gt;" style="text;html=1;strokeColor=none;fillColor=none;align=left;verticalAlign=middle;whiteSpace=wrap;rounded=0;fontSize=15;" vertex="1" parent="1">
                    <mxGeometry x="380" y="187.5" width="70" height="20" as="geometry"/>
                </mxCell>
                <mxCell id="73" value="" style="rounded=0;whiteSpace=wrap;html=1;verticalAlign=top;fontSize=9;align=left;fillColor=#0050ef;fontColor=#ffffff;strokeColor=none;" vertex="1" parent="1">
                    <mxGeometry x="460" y="7.5" width="130" height="180" as="geometry"/>
                </mxCell>
                <mxCell id="74" value="" style="rounded=0;whiteSpace=wrap;html=1;verticalAlign=top;fontSize=9;align=left;fillColor=#a20025;fontColor=#ffffff;strokeColor=none;gradientColor=#0050EF;gradientDirection=north;" vertex="1" parent="1">
                    <mxGeometry x="460" y="187.5" width="130" height="20" as="geometry"/>
                </mxCell>
                <mxCell id="83" value="a" style="rounded=0;whiteSpace=wrap;html=1;verticalAlign=top;fontSize=9;align=left;fillColor=none;fontColor=#ffffff;strokeColor=#000000;" vertex="1" parent="1">
                    <mxGeometry x="460" y="-12.5" width="130" height="220" as="geometry"/>
                </mxCell>
                <mxCell id="84" value="" style="rounded=0;whiteSpace=wrap;html=1;verticalAlign=top;fontSize=9;align=left;fillColor=#60a917;fontColor=#ffffff;strokeColor=none;gradientColor=#0050EF;" vertex="1" parent="1">
                    <mxGeometry x="470" y="7.5" width="120" height="20" as="geometry"/>
                </mxCell>
                <mxCell id="85" value="" style="rounded=0;whiteSpace=wrap;html=1;verticalAlign=top;fontSize=9;align=left;fillColor=#0050ef;fontColor=#ffffff;strokeColor=none;" vertex="1" parent="1">
                    <mxGeometry x="470" y="27.5" width="120" height="80" as="geometry"/>
                </mxCell>
                <mxCell id="86" value="" style="rounded=0;whiteSpace=wrap;html=1;verticalAlign=top;fontSize=9;align=left;fillColor=#a20025;fontColor=#ffffff;strokeColor=none;gradientColor=#0050EF;gradientDirection=north;" vertex="1" parent="1">
                    <mxGeometry x="470" y="107.5" width="120" height="20" as="geometry"/>
                </mxCell>
                <mxCell id="87" value="t0" style="rounded=0;whiteSpace=wrap;html=1;verticalAlign=top;fontSize=9;align=left;fillColor=none;fontColor=#ffffff;strokeColor=#000000;" vertex="1" parent="1">
                    <mxGeometry x="470" y="7.5" width="120" height="120" as="geometry"/>
                </mxCell>
                <mxCell id="88" value="" style="rounded=0;whiteSpace=wrap;html=1;verticalAlign=top;fontSize=9;align=left;fillColor=#60a917;fontColor=#ffffff;strokeColor=none;gradientColor=#0050EF;" vertex="1" parent="1">
                    <mxGeometry x="480" y="27.5" width="110" height="20" as="geometry"/>
                </mxCell>
                <mxCell id="90" value="" style="rounded=0;whiteSpace=wrap;html=1;verticalAlign=top;fontSize=9;align=left;fillColor=#a20025;fontColor=#ffffff;strokeColor=none;gradientColor=#0050EF;gradientDirection=north;" vertex="1" parent="1">
                    <mxGeometry x="480" y="47.5" width="110" height="20" as="geometry"/>
                </mxCell>
                <mxCell id="91" value="t1" style="rounded=0;whiteSpace=wrap;html=1;verticalAlign=top;fontSize=9;align=left;fillColor=none;fontColor=#ffffff;strokeColor=#000000;" vertex="1" parent="1">
                    <mxGeometry x="480" y="27.5" width="110" height="40" as="geometry"/>
                </mxCell>
                <mxCell id="103" value="" style="rounded=0;whiteSpace=wrap;html=1;verticalAlign=top;fontSize=9;align=left;fillColor=#60a917;fontColor=#ffffff;strokeColor=none;gradientColor=#0050EF;" vertex="1" parent="1">
                    <mxGeometry x="490" y="47.5" width="100" height="20" as="geometry"/>
                </mxCell>
                <mxCell id="104" value="" style="rounded=0;whiteSpace=wrap;html=1;verticalAlign=top;fontSize=9;align=left;fillColor=#0050ef;fontColor=#ffffff;strokeColor=none;" vertex="1" parent="1">
                    <mxGeometry x="490" y="67.5" width="100" height="20" as="geometry"/>
                </mxCell>
                <mxCell id="105" value="" style="rounded=0;whiteSpace=wrap;html=1;verticalAlign=top;fontSize=9;align=left;fillColor=#a20025;fontColor=#ffffff;strokeColor=none;gradientColor=#0050EF;gradientDirection=north;" vertex="1" parent="1">
                    <mxGeometry x="490" y="87.5" width="100" height="20" as="geometry"/>
                </mxCell>
                <mxCell id="106" value="t2" style="rounded=0;whiteSpace=wrap;html=1;verticalAlign=top;fontSize=9;align=left;fillColor=none;fontColor=#ffffff;strokeColor=#000000;" vertex="1" parent="1">
                    <mxGeometry x="490" y="47.5" width="100" height="60" as="geometry"/>
                </mxCell>
                <mxCell id="107" value="" style="rounded=0;whiteSpace=wrap;html=1;verticalAlign=top;fontSize=9;align=left;fillColor=#60a917;fontColor=#ffffff;strokeColor=none;gradientColor=#0050EF;" vertex="1" parent="1">
                    <mxGeometry x="500" y="67.5" width="90" height="20" as="geometry"/>
                </mxCell>
                <mxCell id="109" value="" style="rounded=0;whiteSpace=wrap;html=1;verticalAlign=top;fontSize=9;align=left;fillColor=#a20025;fontColor=#ffffff;strokeColor=none;gradientColor=#0050EF;gradientDirection=north;" vertex="1" parent="1">
                    <mxGeometry x="500" y="87.5" width="90" height="20" as="geometry"/>
                </mxCell>
                <mxCell id="110" value="t3" style="rounded=0;whiteSpace=wrap;html=1;verticalAlign=top;fontSize=9;align=left;fillColor=none;fontColor=#ffffff;strokeColor=#000000;" vertex="1" parent="1">
                    <mxGeometry x="500" y="67.5" width="90" height="40" as="geometry"/>
                </mxCell>
                <mxCell id="111" value="" style="rounded=0;whiteSpace=wrap;html=1;verticalAlign=top;fontSize=9;align=left;fillColor=#60a917;fontColor=#ffffff;strokeColor=none;gradientColor=#0050EF;" vertex="1" parent="1">
                    <mxGeometry x="510" y="87.5" width="80" height="20" as="geometry"/>
                </mxCell>
                <mxCell id="113" value="" style="rounded=0;whiteSpace=wrap;html=1;verticalAlign=top;fontSize=9;align=left;fillColor=#a20025;fontColor=#ffffff;strokeColor=none;gradientColor=#0050EF;gradientDirection=north;" vertex="1" parent="1">
                    <mxGeometry x="510" y="107.5" width="80" height="20" as="geometry"/>
                </mxCell>
                <mxCell id="114" value="b" style="rounded=0;whiteSpace=wrap;html=1;verticalAlign=top;fontSize=9;align=left;fillColor=none;fontColor=#ffffff;strokeColor=#000000;" vertex="1" parent="1">
                    <mxGeometry x="510" y="87.5" width="80" height="40" as="geometry"/>
                </mxCell>
                <mxCell id="115" value="" style="rounded=0;whiteSpace=wrap;html=1;verticalAlign=top;fontSize=9;align=left;fillColor=#60a917;fontColor=#ffffff;strokeColor=none;gradientColor=#0050EF;" vertex="1" parent="1">
                    <mxGeometry x="520" y="107.5" width="70" height="20" as="geometry"/>
                </mxCell>
                <mxCell id="116" value="" style="rounded=0;whiteSpace=wrap;html=1;verticalAlign=top;fontSize=9;align=left;fillColor=#0050ef;fontColor=#ffffff;strokeColor=none;" vertex="1" parent="1">
                    <mxGeometry x="520" y="127.5" width="70" height="20" as="geometry"/>
                </mxCell>
                <mxCell id="117" value="" style="rounded=0;whiteSpace=wrap;html=1;verticalAlign=top;fontSize=9;align=left;fillColor=#a20025;fontColor=#ffffff;strokeColor=none;gradientColor=#0050EF;gradientDirection=north;" vertex="1" parent="1">
                    <mxGeometry x="520" y="167.5" width="70" height="20" as="geometry"/>
                </mxCell>
                <mxCell id="118" value="t5" style="rounded=0;whiteSpace=wrap;html=1;verticalAlign=top;fontSize=9;align=left;fillColor=none;fontColor=#ffffff;strokeColor=#000000;" vertex="1" parent="1">
                    <mxGeometry x="520" y="107.5" width="70" height="80" as="geometry"/>
                </mxCell>
                <mxCell id="119" value="" style="rounded=0;whiteSpace=wrap;html=1;verticalAlign=top;fontSize=9;align=left;fillColor=#60a917;fontColor=#ffffff;strokeColor=none;gradientColor=#0050EF;" vertex="1" parent="1">
                    <mxGeometry x="535" y="127.5" width="55" height="20" as="geometry"/>
                </mxCell>
                <mxCell id="121" value="" style="rounded=0;whiteSpace=wrap;html=1;verticalAlign=top;fontSize=9;align=left;fillColor=#a20025;fontColor=#ffffff;strokeColor=none;gradientColor=#0050EF;gradientDirection=north;" vertex="1" parent="1">
                    <mxGeometry x="535" y="147.5" width="55" height="20" as="geometry"/>
                </mxCell>
                <mxCell id="122" value="t6" style="rounded=0;whiteSpace=wrap;html=1;verticalAlign=top;fontSize=9;align=left;fillColor=none;fontColor=#ffffff;strokeColor=#000000;" vertex="1" parent="1">
                    <mxGeometry x="535" y="127.5" width="55" height="40" as="geometry"/>
                </mxCell>
                <mxCell id="124" value="" style="rounded=0;whiteSpace=wrap;html=1;verticalAlign=top;fontSize=9;align=left;fillColor=#60a917;fontColor=#ffffff;strokeColor=none;gradientColor=#0050EF;" vertex="1" parent="1">
                    <mxGeometry x="542.5" y="147.5" width="47.5" height="20" as="geometry"/>
                </mxCell>
                <mxCell id="125" value="" style="rounded=0;whiteSpace=wrap;html=1;verticalAlign=top;fontSize=9;align=left;fillColor=#a20025;fontColor=#ffffff;strokeColor=none;gradientColor=#0050EF;gradientDirection=north;" vertex="1" parent="1">
                    <mxGeometry x="542.5" y="167.5" width="47.5" height="20" as="geometry"/>
                </mxCell>
                <mxCell id="126" value="t7" style="rounded=0;whiteSpace=wrap;html=1;verticalAlign=top;fontSize=9;align=left;fillColor=none;fontColor=#ffffff;strokeColor=#000000;" vertex="1" parent="1">
                    <mxGeometry x="542.5" y="147.5" width="47.5" height="40" as="geometry"/>
                </mxCell>
                <mxCell id="127" value="" style="rounded=0;whiteSpace=wrap;html=1;verticalAlign=top;fontSize=9;align=left;fillColor=#60a917;fontColor=#ffffff;strokeColor=none;gradientColor=#0050EF;" vertex="1" parent="1">
                    <mxGeometry x="549.25" y="167.5" width="40.75" height="20" as="geometry"/>
                </mxCell>
                <mxCell id="128" value="" style="rounded=0;whiteSpace=wrap;html=1;verticalAlign=top;fontSize=9;align=left;fillColor=#a20025;fontColor=#ffffff;strokeColor=none;gradientColor=#0050EF;gradientDirection=north;" vertex="1" parent="1">
                    <mxGeometry x="549.25" y="187.5" width="40.75" height="20" as="geometry"/>
                </mxCell>
                <mxCell id="129" value="c" style="rounded=0;whiteSpace=wrap;html=1;verticalAlign=top;fontSize=9;align=left;fillColor=none;fontColor=#ffffff;strokeColor=#000000;" vertex="1" parent="1">
                    <mxGeometry x="549.25" y="167.5" width="40.75" height="40" as="geometry"/>
                </mxCell>
                <mxCell id="130" value="" style="rounded=0;whiteSpace=wrap;html=1;verticalAlign=top;fontSize=9;align=left;fillColor=#60a917;fontColor=#ffffff;strokeColor=none;gradientColor=#0050EF;" vertex="1" parent="1">
                    <mxGeometry x="559.25" y="187.5" width="30.75" height="20" as="geometry"/>
                </mxCell>
                <mxCell id="131" value="" style="rounded=0;whiteSpace=wrap;html=1;verticalAlign=top;fontSize=9;align=left;fillColor=#0050EF;fontColor=#ffffff;strokeColor=none;gradientColor=#0050EF;gradientDirection=north;" vertex="1" parent="1">
                    <mxGeometry x="559.25" y="207.5" width="30.75" height="20" as="geometry"/>
                </mxCell>
                <mxCell id="132" value="d" style="rounded=0;whiteSpace=wrap;html=1;verticalAlign=top;fontSize=9;align=left;fillColor=none;fontColor=#ffffff;strokeColor=#000000;" vertex="1" parent="1">
                    <mxGeometry x="559.25" y="187.5" width="30.75" height="40" as="geometry"/>
                </mxCell>
                <mxCell id="140" value="&lt;span style=&quot;font-size: 12px&quot;&gt;r0&amp;nbsp; &amp;nbsp;:= 7&lt;/span&gt;" style="text;html=1;strokeColor=none;fillColor=none;align=left;verticalAlign=middle;whiteSpace=wrap;rounded=0;fontSize=15;" vertex="1" parent="1">
                    <mxGeometry x="470" y="327.5" width="70" height="20" as="geometry"/>
                </mxCell>
                <mxCell id="141" value="&lt;span style=&quot;font-size: 12px&quot;&gt;r1&amp;nbsp; &amp;nbsp;:= 6&lt;/span&gt;" style="text;html=1;strokeColor=none;fillColor=none;align=left;verticalAlign=middle;whiteSpace=wrap;rounded=0;fontSize=15;" vertex="1" parent="1">
                    <mxGeometry x="470" y="347.5" width="70" height="20" as="geometry"/>
                </mxCell>
                <mxCell id="142" value="&lt;span style=&quot;font-size: 12px&quot;&gt;r2&amp;nbsp; &amp;nbsp;:= 2&lt;/span&gt;" style="text;html=1;strokeColor=none;fillColor=none;align=left;verticalAlign=middle;whiteSpace=wrap;rounded=0;fontSize=15;" vertex="1" parent="1">
                    <mxGeometry x="470" y="367.5" width="70" height="20" as="geometry"/>
                </mxCell>
                <mxCell id="143" value="&lt;span style=&quot;font-size: 12px&quot;&gt;r2&amp;nbsp; &amp;nbsp;:= r1 * r2&lt;/span&gt;" style="text;html=1;strokeColor=none;fillColor=none;align=left;verticalAlign=middle;whiteSpace=wrap;rounded=0;fontSize=15;" vertex="1" parent="1">
                    <mxGeometry x="470" y="387.5" width="80" height="20" as="geometry"/>
                </mxCell>
                <mxCell id="144" value="&lt;span style=&quot;font-size: 12px&quot;&gt;r3&amp;nbsp; &amp;nbsp;:= 3&lt;/span&gt;" style="text;html=1;strokeColor=none;fillColor=none;align=left;verticalAlign=middle;whiteSpace=wrap;rounded=0;fontSize=15;" vertex="1" parent="1">
                    <mxGeometry x="470" y="407.5" width="70" height="20" as="geometry"/>
                </mxCell>
                <mxCell id="145" value="&lt;span style=&quot;font-size: 12px&quot;&gt;r2&amp;nbsp; &amp;nbsp;:= r3 + r2&lt;/span&gt;" style="text;html=1;strokeColor=none;fillColor=none;align=left;verticalAlign=middle;whiteSpace=wrap;rounded=0;fontSize=15;" vertex="1" parent="1">
                    <mxGeometry x="470" y="427.5" width="90" height="20" as="geometry"/>
                </mxCell>
                <mxCell id="146" value="&lt;span style=&quot;font-size: 12px&quot;&gt;r1&amp;nbsp; &amp;nbsp;:= r2 * r1&lt;/span&gt;" style="text;html=1;strokeColor=none;fillColor=none;align=left;verticalAlign=middle;whiteSpace=wrap;rounded=0;fontSize=15;" vertex="1" parent="1">
                    <mxGeometry x="470" y="447.5" width="80" height="20" as="geometry"/>
                </mxCell>
                <mxCell id="147" value="&lt;span style=&quot;font-size: 12px&quot;&gt;r2&amp;nbsp; &amp;nbsp;:= 9&lt;/span&gt;" style="text;html=1;strokeColor=none;fillColor=none;align=left;verticalAlign=middle;whiteSpace=wrap;rounded=0;fontSize=15;" vertex="1" parent="1">
                    <mxGeometry x="470" y="467.5" width="70" height="20" as="geometry"/>
                </mxCell>
                <mxCell id="148" value="&lt;span style=&quot;font-size: 12px&quot;&gt;r2&amp;nbsp; &amp;nbsp;:= r2 * r1&lt;/span&gt;" style="text;html=1;strokeColor=none;fillColor=none;align=left;verticalAlign=middle;whiteSpace=wrap;rounded=0;fontSize=15;" vertex="1" parent="1">
                    <mxGeometry x="470" y="487.5" width="80" height="20" as="geometry"/>
                </mxCell>
                <mxCell id="149" value="&lt;span style=&quot;font-size: 12px&quot;&gt;r2&amp;nbsp; &amp;nbsp;:= r1 + r2&lt;/span&gt;" style="text;html=1;strokeColor=none;fillColor=none;align=left;verticalAlign=middle;whiteSpace=wrap;rounded=0;fontSize=15;" vertex="1" parent="1">
                    <mxGeometry x="470" y="507.5" width="80" height="20" as="geometry"/>
                </mxCell>
                <mxCell id="150" value="&lt;span style=&quot;font-size: 12px&quot;&gt;r0&amp;nbsp; &amp;nbsp;:= r0 * r2&lt;/span&gt;" style="text;html=1;strokeColor=none;fillColor=none;align=left;verticalAlign=middle;whiteSpace=wrap;rounded=0;fontSize=15;" vertex="1" parent="1">
                    <mxGeometry x="470" y="527.5" width="80" height="20" as="geometry"/>
                </mxCell>
                <mxCell id="151" value="r0" style="ellipse;whiteSpace=wrap;html=1;aspect=fixed;fontSize=20;fillColor=#6a00ff;fontColor=#ffffff;strokeColor=#3700CC;" vertex="1" parent="1">
                    <mxGeometry x="160" y="587.5" width="30" height="30" as="geometry"/>
                </mxCell>
                <mxCell id="152" value="r2" style="ellipse;whiteSpace=wrap;html=1;aspect=fixed;fontSize=20;fillColor=#d80073;fontColor=#ffffff;strokeColor=#A50040;" vertex="1" parent="1">
                    <mxGeometry x="240" y="587.5" width="30" height="30" as="geometry"/>
                </mxCell>
                <mxCell id="153" value="r1" style="ellipse;whiteSpace=wrap;html=1;aspect=fixed;fontSize=20;fillColor=#fa6800;fontColor=#000000;strokeColor=#C73500;" vertex="1" parent="1">
                    <mxGeometry x="200" y="587.5" width="30" height="30" as="geometry"/>
                </mxCell>
                <mxCell id="154" value="r3" style="ellipse;whiteSpace=wrap;html=1;aspect=fixed;fontSize=20;fillColor=#008a00;fontColor=#ffffff;strokeColor=#005700;" vertex="1" parent="1">
                    <mxGeometry x="280" y="587.5" width="30" height="30" as="geometry"/>
                </mxCell>
                <mxCell id="168" style="edgeStyle=none;jumpStyle=arc;jumpSize=9;html=1;fontSize=15;endArrow=open;endFill=0;endSize=20;" edge="1" parent="1">
                    <mxGeometry relative="1" as="geometry">
                        <mxPoint x="65" y="439.58666666666693" as="targetPoint"/>
                        <mxPoint x="600" y="110" as="sourcePoint"/>
                        <Array as="points">
                            <mxPoint x="620" y="110"/>
                            <mxPoint x="620" y="260"/>
                            <mxPoint x="10" y="260"/>
                            <mxPoint x="10" y="440"/>
                        </Array>
                    </mxGeometry>
                </mxCell>
                <mxCell id="169" value="" style="rounded=1;whiteSpace=wrap;html=1;fontSize=15;gradientDirection=north;fillColor=none;strokeColor=#000000;" vertex="1" parent="1">
                    <mxGeometry x="150" y="580.5" width="170" height="47" as="geometry"/>
                </mxCell>
                <mxCell id="171" style="edgeStyle=none;jumpStyle=arc;jumpSize=9;html=1;exitX=1;exitY=0.5;exitDx=0;exitDy=0;fontSize=15;endArrow=open;endFill=0;endSize=20;" edge="1" parent="1">
                    <mxGeometry relative="1" as="geometry">
                        <mxPoint x="460" y="437.08666666666704" as="targetPoint"/>
                        <mxPoint x="410" y="437.4200000000001" as="sourcePoint"/>
                    </mxGeometry>
                </mxCell>
            </root>
        </mxGraphModel>
    </diagram>
</mxfile>